<svg width="35" height="32" viewBox="0 0 35 32" fill="none" xmlns="http://www.w3.org/2000/svg">
<path d="M30.6599 10.3758H5.10858C4.52658 10.3758 4.04395 9.9351 4.04395 9.4037C4.04395 8.87231 4.52658 8.43164 5.10858 8.43164H30.6599C31.2419 8.43164 31.7245 8.87231 31.7245 9.4037C31.7245 9.9351 31.2419 10.3758 30.6599 10.3758Z" fill="#1C2430"/>
<path d="M26.4013 16.8562H9.36713C8.78513 16.8562 8.30249 16.4156 8.30249 15.8842C8.30249 15.3528 8.78513 14.9121 9.36713 14.9121H26.4013C26.9833 14.9121 27.466 15.3528 27.466 15.8842C27.466 16.4156 26.9833 16.8562 26.4013 16.8562Z" fill="#1C2430"/>
<path d="M20.7234 23.3347H15.0454C14.4633 23.3347 13.9807 22.8941 13.9807 22.3627C13.9807 21.8313 14.4633 21.3906 15.0454 21.3906H20.7234C21.3054 21.3906 21.7881 21.8313 21.7881 22.3627C21.7881 22.8941 21.3054 23.3347 20.7234 23.3347Z" fill="#1C2430"/>
</svg>
