<svg xmlns:xlink="http://www.w3.org/1999/xlink" xmlns="http://www.w3.org/2000/svg" width="32" height="32" viewBox="2 2 31 32" fill="none"><g filter="url(#filter0_d_18122_7185)" fill="none"><path d="M9.0055 4.63549C9.93 4.4897 10.8702 4.48882 11.8043 4.50978L11.724 4.58398C10.5018 5.38451 9.48826 6.4836 8.75583 7.74507C7.28746 10.2706 6.75232 13.2571 6.87366 16.152C6.99413 18.509 7.55983 20.8792 8.75932 22.9281C8.9601 23.2948 9.29446 23.6186 9.2997 24.0639C9.33724 25.0189 8.86495 25.919 8.22592 26.6016C8.26782 26.6453 8.30886 26.6889 8.35076 26.7326C8.94876 27.3856 9.58691 27.9993 10.1945 28.6436C11.0579 29.6196 12.0418 30.4838 12.8877 31.4773C11.4804 31.4982 10.0566 31.5637 8.66591 31.3009C6.91556 30.9613 5.36164 29.7479 4.6196 28.1259C4.17001 27.1883 4.03557 26.1398 4.00065 25.1123C3.99978 20.3685 3.99978 15.6255 4.00065 10.8826C4.01986 9.29725 4.43977 7.63857 5.55545 6.46265C6.43891 5.46657 7.68991 4.81881 9.0055 4.63549Z" fill="#394960"></path><path d="M21.8226 13.3457C22.1971 13.3457 22.5717 13.3457 22.947 13.3457C22.9409 15.5395 22.9409 17.7342 22.947 19.928C22.5804 19.8765 21.9702 20.1114 21.8322 19.6234C21.8095 17.5317 21.8305 15.4383 21.8226 13.3457Z" fill="#1C2430"></path><path d="M10.3657 13.4244C12.1082 13.4227 13.8489 13.4113 15.5905 13.4236C15.5783 13.7649 15.5591 14.1368 15.3304 14.4127C14.1396 15.895 12.9742 17.3965 11.7843 18.8789C13.0492 18.8867 14.3142 18.8815 15.5792 18.8815C15.5556 19.1774 15.6595 19.5223 15.4674 19.7789C15.347 19.9448 15.1287 19.93 14.948 19.9317C13.3653 19.923 11.7825 19.9396 10.2007 19.923C10.205 19.5886 10.2085 19.2185 10.4425 18.9522C11.6193 17.476 12.81 16.0102 13.9816 14.5305C12.7777 14.5323 11.573 14.5227 10.3692 14.5358C10.3613 14.1656 10.3639 13.7946 10.3657 13.4244Z" fill="#1C2430"></path><path d="M25.7347 14.8771C26.9883 14.5969 28.3484 15.4201 28.6915 16.6546C29.1219 17.9387 28.3362 19.4656 27.038 19.8567C25.9355 20.2452 24.6155 19.738 24.0437 18.7218C23.595 17.971 23.5679 16.988 23.9756 16.2154C24.3213 15.5336 24.9891 15.0352 25.7347 14.8771ZM25.7137 15.9893C24.949 16.2591 24.5369 17.1897 24.8355 17.9413C25.0825 18.652 25.9145 19.0867 26.6373 18.8685C27.4623 18.6712 27.9608 17.7048 27.6683 16.913C27.4239 16.129 26.4767 15.6768 25.7137 15.9893Z" fill="#1C2430"></path><path d="M16.4479 15.7912C17.0511 15.0439 18.1074 14.6755 19.038 14.9418C19.3453 15.0195 19.6238 15.1731 19.8927 15.3364C19.8901 15.2543 19.884 15.0911 19.8813 15.009C20.2332 15.0072 20.5841 15.0081 20.9359 15.0064C20.9342 16.6476 20.9324 18.2888 20.9368 19.9309C20.6784 19.9239 20.4156 19.9545 20.1616 19.9021C19.9835 19.8296 19.9285 19.635 19.8578 19.4761C18.887 20.2303 17.3619 20.0592 16.5552 19.1408C15.6954 18.2513 15.6508 16.7358 16.4479 15.7912ZM17.8691 16.0112C17.0607 16.2958 16.6687 17.3373 17.0782 18.088C17.4274 18.8196 18.4104 19.1269 19.1131 18.7236C19.7652 18.3813 20.0664 17.5319 19.7862 16.8527C19.5147 16.1142 18.5989 15.7004 17.8691 16.0112Z" fill="#1C2430"></path><path d="M11.7239 4.58335C11.9194 4.52748 12.1237 4.51002 12.3262 4.50391C15.8173 4.517 19.3084 4.50216 22.7995 4.50827C23.7327 4.51962 24.6712 4.45676 25.5974 4.59906C26.8798 4.69684 28.1142 5.23984 29.0684 6.09798C30.2662 7.24247 30.9052 8.89068 30.9253 10.5345C30.9261 15.1622 30.9235 19.7934 30.9279 24.4194C30.9157 24.4465 30.8921 24.5023 30.8799 24.5303C29.6359 25.9218 27.9632 26.8638 26.2146 27.4731C23.8584 28.2763 21.3346 28.5347 18.8579 28.3461C16.3813 28.1331 13.8854 27.4862 11.785 26.1174C10.7112 26.5949 9.52656 26.8289 8.35064 26.732C8.30874 26.6883 8.26771 26.6447 8.2258 26.601C8.86483 25.9183 9.33712 25.0183 9.29958 24.0632C9.29434 23.618 8.95999 23.2941 8.7592 22.9275C7.55971 20.8786 6.99402 18.5084 6.87354 16.1513C6.7522 13.2565 7.28734 10.27 8.75571 7.74444C9.48815 6.48297 10.5017 5.38388 11.7239 4.58335ZM21.8226 13.3455C21.8305 15.4381 21.8095 17.5315 21.8322 19.6232C21.9701 20.1112 22.5804 19.8764 22.947 19.9279C22.9409 17.7341 22.9409 15.5394 22.947 13.3455C22.5716 13.3455 22.1971 13.3455 21.8226 13.3455ZM10.3655 13.4232C10.3638 13.7934 10.3611 14.1644 10.369 14.5345C11.5728 14.5215 12.7776 14.5311 13.9814 14.5293C12.8099 16.009 11.6191 17.4748 10.4423 18.951C10.2084 19.2173 10.2049 19.5874 10.2005 19.9218C11.7824 19.9384 13.3651 19.9218 14.9478 19.9305C15.1285 19.9287 15.3468 19.9436 15.4672 19.7777C15.6593 19.5211 15.5554 19.1762 15.579 18.8803C14.314 18.8803 13.0491 18.8855 11.7841 18.8777C12.974 17.3953 14.1394 15.8938 15.3302 14.4115C15.5589 14.1356 15.5781 13.7637 15.5903 13.4224C13.8487 13.4101 12.108 13.4215 10.3655 13.4232ZM25.7345 14.8759C24.9889 15.0339 24.3211 15.5324 23.9754 16.2142C23.5677 16.9868 23.5948 17.9698 24.0435 18.7205C24.6153 19.7367 25.9353 20.2439 27.0378 19.8554C28.336 19.4643 29.1217 17.9375 28.6913 16.6533C28.3482 15.4189 26.9881 14.5957 25.7345 14.8759ZM16.4476 15.7899C15.6506 16.7345 15.6951 18.25 16.555 19.1396C17.3616 20.0579 18.8867 20.2291 19.8575 19.4748C19.9282 19.6337 19.9832 19.8284 20.1613 19.9008C20.4153 19.9532 20.6781 19.9226 20.9365 19.9296C20.9322 18.2875 20.9339 16.6463 20.9356 15.0051C20.5838 15.0068 20.2329 15.006 19.8811 15.0077C19.8837 15.0898 19.8898 15.253 19.8924 15.3351C19.6235 15.1718 19.3451 15.0182 19.0378 14.9405C18.1072 14.6742 17.0508 15.0426 16.4476 15.7899Z" fill="#FFFFFF"></path><path d="M17.8685 16.0106C18.5983 15.6998 19.5141 16.1136 19.7856 16.8521C20.0658 17.5313 19.7646 18.3807 19.1125 18.7229C18.4097 19.1263 17.4267 18.819 17.0775 18.0874C16.6681 17.3366 17.0601 16.2952 17.8685 16.0106Z" fill="#FFFFFF"></path><path d="M25.7132 15.9885C26.4762 15.676 27.4234 16.1282 27.6678 16.9121C27.9603 17.7039 27.4618 18.6703 26.6368 18.8676C25.914 19.0859 25.0821 18.6511 24.835 17.9405C24.5364 17.1889 24.9485 16.2583 25.7132 15.9885Z" fill="#FFFFFF"></path><path d="M30.8798 24.5302L30.9488 24.4551C30.9846 25.8196 30.837 27.2434 30.1674 28.4577C29.3887 29.8825 27.9762 30.9405 26.3874 31.2792C25.4961 31.4634 24.5821 31.5045 23.6742 31.4931C20.8815 31.494 18.0888 31.4931 15.2961 31.494C14.4929 31.4809 13.688 31.5184 12.8875 31.4765C12.0416 30.4831 11.0577 29.6188 10.1943 28.6428C9.58674 27.9985 8.94858 27.3848 8.35059 26.7318C9.5265 26.8287 10.7111 26.5948 11.7849 26.1172C13.8853 27.4861 16.3812 28.133 18.8579 28.346C21.3345 28.5346 23.8584 28.2762 26.2146 27.473C27.9632 26.8637 29.6358 25.9217 30.8798 24.5302Z" fill="#394960"></path></g><defs><filter id="filter0_d_18122_7185" x="0" y="0.5" width="34.9536" height="35" filterUnits="userSpaceOnUse" color-interpolation-filters="sRGB"><feFlood flood-opacity="0" result="BackgroundImageFix"></feFlood><feColorMatrix in="SourceAlpha" type="matrix" values="0 0 0 0 0 0 0 0 0 0 0 0 0 0 0 0 0 0 127 0" result="hardAlpha"></feColorMatrix><feOffset></feOffset><feGaussianBlur stdDeviation="2"></feGaussianBlur><feComposite in2="hardAlpha" operator="out"></feComposite><feColorMatrix type="matrix" values="0 0 0 0 0 0 0 0 0 0 0 0 0 0 0 0 0 0 0.25 0"></feColorMatrix><feBlend mode="normal" in2="BackgroundImageFix" result="effect1_dropShadow_18122_7185"></feBlend><feBlend mode="normal" in="SourceGraphic" in2="effect1_dropShadow_18122_7185" result="shape"></feBlend></filter></defs></svg>